<svg width="41" height="41" viewBox="0 0 41 41" fill="none" xmlns="http://www.w3.org/2000/svg">
<g id="React">
<path id="Vector" d="M33.7102 14.0655C33.2849 13.9191 32.8442 13.7806 32.3904 13.6496C32.465 13.3452 32.5334 13.0447 32.5943 12.7494C33.5934 7.89969 32.9402 3.99273 30.7095 2.7064C28.5707 1.47297 25.0727 2.75902 21.5399 5.8335C21.2002 6.12914 20.8595 6.44214 20.519 6.77019C20.2921 6.55315 20.0656 6.3434 19.8396 6.14278C16.1371 2.85535 12.426 1.46998 10.1976 2.76004C8.06073 3.99704 7.42792 7.66995 8.32725 12.2661C8.41409 12.71 8.51561 13.1633 8.6304 13.6243C8.10517 13.7734 7.59811 13.9323 7.11294 14.1014C2.7722 15.6148 0 17.9866 0 20.4468C0 22.9878 2.97596 25.5363 7.49718 27.0817C7.85398 27.2036 8.2242 27.3189 8.60574 27.4284C8.48189 27.9269 8.37417 28.4155 8.28375 28.8919C7.42624 33.4083 8.0959 36.9944 10.227 38.2236C12.4283 39.493 16.1227 38.1882 19.7201 35.0437C20.0044 34.7951 20.2897 34.5315 20.5756 34.2552C20.9461 34.612 21.3161 34.9497 21.684 35.2664C25.1685 38.2649 28.61 39.4757 30.7392 38.2431C32.9383 36.97 33.6529 33.1177 32.7251 28.4306C32.6542 28.0727 32.5718 27.707 32.4791 27.3348C32.7386 27.2581 32.9933 27.1789 33.2416 27.0966C37.9419 25.5393 41 23.0217 41 20.4468C41 17.9777 38.1384 15.5899 33.7102 14.0655ZM32.6908 25.434C32.4666 25.5082 32.2366 25.58 32.0021 25.6495C31.4833 24.0068 30.783 22.2601 29.926 20.4554C30.7438 18.6936 31.417 16.9692 31.9214 15.3372C32.3408 15.4585 32.7478 15.5865 33.1401 15.7216C36.9342 17.0277 39.2485 18.9588 39.2485 20.4468C39.2485 22.0318 36.7491 24.0893 32.6908 25.434ZM31.0069 28.7708C31.4171 30.8433 31.4757 32.7172 31.204 34.182C30.9598 35.4983 30.4687 36.3758 29.8615 36.7273C28.5694 37.4752 25.8063 36.503 22.8263 33.9387C22.4847 33.6447 22.1406 33.3308 21.7954 32.9986C22.9506 31.7351 24.1053 30.2663 25.2321 28.635C27.2142 28.4591 29.0868 28.1716 30.7849 27.779C30.8686 28.1164 30.9429 28.4473 31.0069 28.7708ZM13.9778 36.5981C12.7154 37.0439 11.71 37.0567 11.1022 36.7062C9.80895 35.9603 9.27131 33.081 10.0047 29.2186C10.0887 28.7763 10.1887 28.3219 10.3039 27.8575C11.9834 28.2288 13.8423 28.4961 15.8291 28.6572C16.9636 30.2534 18.1515 31.7207 19.3487 33.0054C19.0871 33.2579 18.8266 33.4983 18.5675 33.7249C16.9768 35.1153 15.3827 36.1019 13.9778 36.5981ZM8.06365 25.4243C6.06445 24.741 4.41343 23.8529 3.28174 22.8838C2.26484 22.013 1.75143 21.1484 1.75143 20.4468C1.75143 18.9539 3.97723 17.0496 7.68948 15.7553C8.13991 15.5983 8.61143 15.4503 9.10076 15.3113C9.6138 16.9802 10.2868 18.725 11.099 20.4894C10.2763 22.2801 9.59373 24.0527 9.07565 25.7412C8.72681 25.6409 8.38884 25.5354 8.06365 25.4243ZM10.0461 11.9297C9.27561 7.99186 9.78735 5.02131 11.0751 4.2759C12.4467 3.48181 15.4798 4.61401 18.6766 7.45254C18.881 7.63397 19.0861 7.82386 19.2918 8.02032C18.1006 9.29944 16.9235 10.7557 15.7991 12.3425C13.8708 12.5213 12.025 12.8084 10.328 13.1928C10.2213 12.7636 10.1268 12.3419 10.0461 11.9297ZM27.7317 16.2967C27.326 15.596 26.9095 14.9118 26.4849 14.2463C27.7931 14.4116 29.0464 14.6312 30.2234 14.8998C29.8701 16.0323 29.4296 17.2164 28.9112 18.4303C28.5393 17.7242 28.1459 17.0123 27.7317 16.2967ZM20.5196 9.27207C21.3274 10.1473 22.1365 11.1245 22.9323 12.1848C22.1304 12.1469 21.3185 12.1272 20.5 12.1272C19.6892 12.1272 18.8834 12.1464 18.0864 12.1837C18.883 11.1333 19.699 10.1574 20.5196 9.27207ZM13.2612 16.3088C12.856 17.0115 12.4699 17.7196 12.1039 18.4289C11.5938 17.2193 11.1575 16.0298 10.801 14.8813C11.9708 14.6195 13.2183 14.4054 14.5181 14.2432C14.0875 14.9148 13.6676 15.6041 13.2612 16.3087V16.3088ZM14.5555 26.7754C13.2126 26.6256 11.9464 26.4225 10.7769 26.168C11.139 24.9989 11.585 23.784 12.1058 22.5483C12.4728 23.2572 12.8604 23.9655 13.2682 24.6698H13.2682C13.6836 25.3872 14.1139 26.09 14.5555 26.7754ZM20.568 31.7451C19.7379 30.8494 18.9099 29.8586 18.1012 28.7929C18.8862 28.8237 19.6866 28.8395 20.5 28.8395C21.3357 28.8395 22.1618 28.8206 22.975 28.7844C22.1766 29.8694 21.3704 30.8617 20.568 31.7451ZM28.9279 22.4854C29.4759 23.7344 29.9378 24.9429 30.3046 26.0921C29.1159 26.3633 27.8324 26.5817 26.4801 26.744C26.9057 26.0695 27.3258 25.3736 27.7387 24.6577C28.1563 23.9335 28.5529 23.2082 28.9279 22.4854ZM26.2215 23.7827C25.5806 24.894 24.9226 25.9548 24.2546 26.9562C23.038 27.0431 21.7811 27.088 20.5 27.088C19.2241 27.088 17.983 27.0483 16.7879 26.9708C16.093 25.9563 15.4207 24.8923 14.7839 23.7923H14.784C14.1489 22.6953 13.5643 21.589 13.0346 20.4889C13.5642 19.3862 14.1472 18.2787 14.7787 17.1836L14.7786 17.1838C15.4117 16.0859 16.0781 15.0271 16.7666 14.0189C17.9859 13.9268 19.2363 13.8787 20.4999 13.8787H20.5C21.7693 13.8787 23.0213 13.9271 24.2403 14.0201C24.9182 15.0209 25.5801 16.0762 26.2157 17.1744C26.8586 18.2848 27.4492 19.385 27.9832 20.464C27.4508 21.5615 26.8615 22.6728 26.2215 23.7827ZM29.8347 4.22379C31.2076 5.01554 31.7415 8.20868 30.8789 12.3959C30.8239 12.6631 30.7619 12.9352 30.6946 13.211C28.9936 12.8185 27.1465 12.5264 25.2126 12.345C24.0861 10.7407 22.9186 9.28221 21.7468 8.01952C22.0618 7.71644 22.3764 7.42744 22.6897 7.15472C25.7166 4.52052 28.5457 3.48049 29.8347 4.22379ZM20.5 16.7857C22.522 16.7857 24.1612 18.4248 24.1612 20.4468C24.1612 22.4688 22.522 24.108 20.5 24.108C18.478 24.108 16.8388 22.4688 16.8388 20.4468C16.8388 18.4248 18.478 16.7857 20.5 16.7857Z" fill="#00D8FF"/>
</g>
</svg>
